<svg width="1024" height="943" viewBox="0 0 1024 943" fill="none" xmlns="http://www.w3.org/2000/svg">
<g clip-path="url(#clip0_10_62)">
<path d="M512 1.61802L626.476 353.938L626.588 354.283H626.951H997.402L697.701 572.029L697.407 572.242L697.519 572.588L811.995 924.908L512.294 707.162L512 706.949L511.706 707.162L212.005 924.908L326.481 572.588L326.593 572.242L326.299 572.029L26.5979 354.283H397.049H397.412L397.524 353.938L512 1.61802Z" stroke="#2B2B2B"/>
<path d="M512 257.618L569 433.046L569.112 433.392H569.476H753.932L604.704 541.812L604.41 542.026L604.522 542.371L661.522 717.799L512.294 609.379L512 609.165L511.706 609.379L362.478 717.799L419.478 542.371L419.59 542.026L419.296 541.812L270.068 433.392H454.524H454.888L455 433.046L512 257.618Z" stroke="#2B2B2B"/>
<line x1="512.5" y1="609" x2="512.5" y2="707" stroke="#2B2B2B"/>
<line x1="752.846" y1="433.524" x2="996.846" y2="354.524" stroke="#2B2B2B"/>
<line y1="-0.5" x2="256.47" y2="-0.5" transform="matrix(-0.951377 -0.308028 -0.308028 0.951377 271 434)" stroke="#2B2B2B"/>
<line x1="511.5" y1="258" x2="511.5" y2="3" stroke="#2B2B2B"/>
<circle cx="875" cy="395" r="20" fill="#3ECDFA"/>
<circle cx="760" cy="768" r="20" fill="#7AFA3E"/>
<circle cx="616" cy="581" r="20" fill="#FA3E3E"/>
<circle cx="584" cy="227" r="20" fill="#3E46FA"/>
<circle cx="325" cy="355" r="20" fill="#FAE73E"/>
<path d="M457 759C457 770.046 448.046 779 437 779C425.954 779 417 770.046 417 759C417 747.954 425.954 739 437 739C448.046 739 457 747.954 457 759Z" fill="#F63EFA"/>
</g>
<defs>
<clipPath id="clip0_10_62">
<rect width="1024" height="943" fill="white"/>
</clipPath>
</defs>
</svg>
