<svg width="880" height="888" viewBox="0 0 880 888" fill="none" xmlns="http://www.w3.org/2000/svg">
<path d="M439.5 779.5C623.415 779.5 772.5 629.063 772.5 443.5C772.5 257.937 623.415 107.5 439.5 107.5C255.585 107.5 106.5 257.937 106.5 443.5C106.5 629.063 255.585 779.5 439.5 779.5Z" stroke="#2D2D2D"/>
<path d="M440 887.5C682.733 887.5 879.5 688.934 879.5 444C879.5 199.066 682.733 0.5 440 0.5C197.267 0.5 0.5 199.066 0.5 444C0.5 688.934 197.267 887.5 440 887.5Z" stroke="#2D2D2D"/>
<path d="M439.5 611.5C531.184 611.5 605.5 536.503 605.5 444C605.5 351.497 531.184 276.5 439.5 276.5C347.816 276.5 273.5 351.497 273.5 444C273.5 536.503 347.816 611.5 439.5 611.5Z" stroke="#2D2D2D"/>
<circle cx="127" cy="128" r="20" fill="#FA3E3E"/>
<circle cx="294" cy="745" r="20" fill="#7AFA3E"/>
<circle cx="107" cy="444" r="20" fill="#FAE73E"/>
<circle cx="67" cy="681" r="20" fill="#3E46FA"/>
<circle cx="314" cy="334" r="20" fill="#3ECDFA"/>
<circle cx="359" cy="118" r="20" fill="#F63EFA"/>
</svg>
