<svg xmlns="http://www.w3.org/2000/svg" xmlns:xlink="http://www.w3.org/1999/xlink" viewBox="0,0,256,256" width="50px" height="50px"><g fill="#ffffff" fill-rule="nonzero" stroke="none" stroke-width="1" stroke-linecap="butt" stroke-linejoin="miter" stroke-miterlimit="10" stroke-dasharray="" stroke-dashoffset="0" font-family="none" font-weight="none" font-size="none" text-anchor="none" style="mix-blend-mode: normal"><g transform="scale(5.12,5.12)"><path d="M25.29883,3.00391c-9.8583,0 -18.26057,6.17595 -21.30273,15.64648c-0.43297,1.3471 -0.7175,2.6865 -0.86914,4.00781c-0.00332,0.00803 -0.00645,0.01539 -0.00977,0.02344l0.00586,0.00195c-1.06271,9.36344 4.54826,17.81076 11.32031,21.58789c1.18015,0.65912 5.26641,2.68297 10.84766,2.7168c0.04332,0.00677 0.08703,0.01069 0.13086,0.01172c4.87583,0 11.87579,-1.56016 17.83594,-9.26953c0.00599,-0.00837 0.01185,-0.01684 0.01758,-0.02539c0.03253,-0.04486 0.0648,-0.08774 0.0957,-0.13281c0.25325,-0.36764 0.23217,-0.8586 -0.05166,-1.20318c-0.28382,-0.34458 -0.76165,-0.45932 -1.171,-0.2812c-0.16454,0.0713 -0.32927,0.147 -0.48438,0.2168c-0.00065,0.00065 -0.0013,0.0013 -0.00195,0.00195c-0.35868,0.16267 -0.71608,0.25553 -1.43555,0.55078c-0.00065,0 -0.0013,0 -0.00195,0c-1.20219,0.49482 -3.17231,0.83008 -5.25977,0.83008c-1.74685,0 -3.4599,-0.22906 -4.75,-0.61719c-1.99076,-0.59923 -7.5927,-2.25098 -10.60352,-8.89258c-0.73593,-1.62126 -1.02707,-4.26454 0.47852,-6.62695c0.96226,-1.50872 2.92874,-2.56055 4.91797,-2.56055c1.21915,0 2.39993,0.37392 3.43555,1.09375c1.59383,1.10871 2.21084,2.36404 2.45313,3.54492c0.24229,1.18088 0.06185,2.29702 -0.09766,2.91602c-0.31358,1.22076 -0.70648,1.68 -0.91016,1.93359c-0.00395,0.00452 -0.00785,0.00908 -0.01172,0.01367c0,0 -0.03975,0.04845 -0.10742,0.13867c-0.30685,0.4105 -0.25372,0.98654 0.12305,1.33398c0.10213,0.09427 0.20882,0.17347 0.3418,0.25586l0.25977,0.16211c1.403,0.87733 4.07051,1.61719 6.73438,1.61719c2.03652,0 4.67703,-0.40139 7.0293,-2.75586c2.05723,-2.05946 2.69334,-4.58942 2.72852,-6.72656c0.03518,-2.13715 -0.49404,-3.92239 -0.78516,-4.75195c-1.0004,-2.84933 -5.15709,-12.16276 -16.63086,-14.35742c-1.40388,-0.26905 -2.83918,-0.4043 -4.27148,-0.4043zM25.29883,5.00391c1.30569,0 2.61837,0.12419 3.89648,0.36914c10.53624,2.01534 14.23554,10.53801 15.11914,13.05469c0.24089,0.68644 0.7012,2.27529 0.67188,4.05664c-0.02932,1.78136 -0.51181,3.71316 -2.14258,5.3457c-1.92573,1.92753 -3.80175,2.16992 -5.61523,2.16992c-2.06353,0 -4.40459,-0.7217 -5.33789,-1.19141c0.29232,-0.45493 0.58533,-0.75202 0.8457,-1.76562c0.2095,-0.813 0.44785,-2.21429 0.11914,-3.81641c-0.09504,-0.4632 -0.24859,-0.943 -0.45703,-1.42383l0.00586,-0.00195c-1.63607,-4.76848 -7.04967,-8.79497 -13.05273,-9.61914c-4.22967,-0.5807 -8.7907,0.60153 -12.36133,4.35937c3.38268,-7.11472 10.26296,-11.53711 18.30859,-11.53711zM17.0957,14.02734c0.66244,-0.00202 1.3243,0.04441 1.98242,0.13476c2.58045,0.35427 5.06432,1.45159 7.08203,2.91797c-0.38012,-0.05628 -0.76496,-0.08984 -1.15234,-0.08984c-1.75429,0 -3.45354,0.57971 -4.80859,1.58594l-0.00195,-0.00195c-0.06851,0.05171 -0.12788,0.10613 -0.19531,0.1582c-0.13339,0.10606 -0.27089,0.2076 -0.39648,0.32227c-6.6413,5.37191 -7.75817,12.50675 -5.49219,18.12109c1.1488,2.84633 3.13848,5.32435 5.64258,7.04883c-2.1987,-0.59901 -3.75854,-1.37565 -4.33789,-1.69922c-6.01712,-3.35607 -11.14296,-10.96555 -10.31641,-19.38086c2.87978,-6.73521 7.42655,-9.10325 11.99414,-9.11719zM17.02539,24.80859c-0.08057,1.57533 0.24445,3.04716 0.76563,4.19531c3.35118,7.3924 9.85842,9.3817 11.84766,9.98047c1.5419,0.46388 3.40902,0.70313 5.32617,0.70313c1.46781,0 2.8083,-0.18435 4.04883,-0.45312c-3.58493,3.43581 -7.25855,4.94323 -10.45898,5.49414c-5.55909,0.39097 -10.56542,-3.29657 -12.58594,-8.30273c-1.43605,-3.55804 -1.40569,-7.7237 1.05664,-11.61719z"></path></g></g></svg>