<svg width="32" height="32" viewBox="0 0 32 32" fill="none" xmlns="http://www.w3.org/2000/svg">
<g clip-path="url(#clip0_991_4693)">
<path d="M16 24.6668L12 22.6668L4 26.6668V9.3335L12 5.3335L20 9.3335L28 5.3335V15.3335" stroke="white" stroke-width="2" stroke-linecap="round" stroke-linejoin="round"/>
<path d="M12 5.3335V22.6668" stroke="white" stroke-width="2" stroke-linecap="round" stroke-linejoin="round"/>
<path d="M20 9.3335V16.6668" stroke="white" stroke-width="2" stroke-linecap="round" stroke-linejoin="round"/>
<path d="M28.1613 26.8279C28.7208 26.2685 29.1019 25.5558 29.2564 24.7798C29.4108 24.0039 29.3317 23.1995 29.0289 22.4686C28.7262 21.7376 28.2135 21.1128 27.5557 20.6732C26.8979 20.2337 26.1245 19.999 25.3333 19.999C24.5421 19.999 23.7687 20.2337 23.1109 20.6732C22.4531 21.1128 21.9404 21.7376 21.6377 22.4686C21.335 23.1995 21.2558 24.0039 21.4103 24.7798C21.5647 25.5558 21.9458 26.2685 22.5053 26.8279C23.0626 27.3865 24.0053 28.2212 25.3333 29.3332C26.7346 28.1465 27.6786 27.3119 28.1613 26.8279Z" stroke="white" stroke-width="2" stroke-linecap="round" stroke-linejoin="round"/>
<path d="M25.3333 24V24.0133" stroke="white" stroke-width="2" stroke-linecap="round" stroke-linejoin="round"/>
</g>
<defs>
<clipPath id="clip0_991_4693">
<rect width="32" height="32" fill="white"/>
</clipPath>
</defs>
</svg>
