<svg width="1126" height="980" viewBox="0 0 1126 980" fill="none" xmlns="http://www.w3.org/2000/svg">
<path d="M342.164 767.5L563 385L783.836 767.5H342.164Z" stroke="#2B2B2B"/>
<path d="M231.312 831.5L563 257L894.688 831.5H231.312Z" stroke="#2B2B2B"/>
<path d="M9.60974 959.5L563 0.999949L1116.39 959.5H9.60974Z" stroke="#2B2B2B"/>
<line x1="562.5" y1="384" x2="562.5" y2="256" stroke="#2B2B2B"/>
<line x1="562.5" y1="960" x2="562.5" y2="832" stroke="#2B2B2B"/>
<line x1="414.75" y1="513.433" x2="303.75" y2="449.433" stroke="#2B2B2B"/>
<line y1="-0.5" x2="128.129" y2="-0.5" transform="matrix(0.866315 -0.499497 -0.499497 -0.866315 711 513)" stroke="#2B2B2B"/>
<line x1="894.75" y1="831.433" x2="783.75" y2="767.433" stroke="#2B2B2B"/>
<line y1="-0.5" x2="128.129" y2="-0.5" transform="matrix(0.866315 -0.499497 -0.499497 -0.866315 231 831)" stroke="#2B2B2B"/>
<circle cx="465" cy="170" r="20" fill="#3ECDFA"/>
<circle cx="764" cy="600" r="20" fill="#FA3E3E"/>
<circle cx="445" cy="589" r="20" fill="#FAE73E"/>
<circle cx="747" cy="300" r="20" fill="#7AFA3E"/>
<path d="M153 960C153 971.046 144.046 980 133 980C121.954 980 113 971.046 113 960C113 948.954 121.954 940 133 940C144.046 940 153 948.954 153 960Z" fill="#F63EFA"/>
<circle cx="656" cy="831" r="20" fill="#3E46FA"/>
</svg>
