<svg xmlns="http://www.w3.org/2000/svg" xmlns:xlink="http://www.w3.org/1999/xlink" viewBox="0,0,256,256" width="50px" height="50px"><g fill="#ffffff" fill-rule="nonzero" stroke="none" stroke-width="1" stroke-linecap="butt" stroke-linejoin="miter" stroke-miterlimit="10" stroke-dasharray="" stroke-dashoffset="0" font-family="none" font-weight="none" font-size="none" text-anchor="none" style="mix-blend-mode: normal"><g transform="scale(5.12,5.12)"><path d="M25,1.91992c-12.73489,0 -23.08008,10.34519 -23.08008,23.08008c0,12.73489 10.34519,23.08008 23.08008,23.08008c12.73489,0 23.08008,-10.34519 23.08008,-23.08008c0,-12.73489 -10.34519,-23.08008 -23.08008,-23.08008zM25,3.91992c11.65401,0 21.08008,9.42607 21.08008,21.08008c0,11.65401 -9.42607,21.08008 -21.08008,21.08008c-11.65401,0 -21.08008,-9.42607 -21.08008,-21.08008c0,-0.36419 0.00915,-0.72632 0.02734,-1.08594c0.56391,-11.14811 9.76292,-19.99414 21.05273,-19.99414zM25,6c-10.48157,0 -19,8.51843 -19,19c0,10.48157 8.51843,19 19,19c10.48157,0 19,-8.51843 19,-19c0,-10.48157 -8.51843,-19 -19,-19zM25,8c4.32759,0 8.2613,1.62403 11.25977,4.2793l-14.77344,8.86328c-0.14111,0.08457 -0.25918,0.20264 -0.34375,0.34375l-8.86328,14.77344c-2.65527,-2.99846 -4.2793,-6.93218 -4.2793,-11.25977c0,-9.40068 7.59932,-17 17,-17zM24.98438,8.98633c-0.55152,0.00862 -0.99193,0.46214 -0.98437,1.01367v1c-0.0051,0.36064 0.18438,0.69608 0.49587,0.87789c0.3115,0.18181 0.69676,0.18181 1.00825,0c0.3115,-0.18181 0.50097,-0.51725 0.49587,-0.87789v-1c0.0037,-0.2703 -0.10218,-0.53059 -0.29351,-0.72155c-0.19133,-0.19097 -0.45182,-0.29634 -0.72212,-0.29212zM30.72461,10.12891c-0.40203,0.00858 -0.75983,0.25711 -0.9082,0.63086l-0.38281,0.92383c-0.14271,0.3312 -0.09606,0.71359 0.12211,1.00076c0.21817,0.28717 0.57404,0.43464 0.93138,0.38594c0.35734,-0.04869 0.66079,-0.28601 0.79416,-0.62108l0.38281,-0.92383c0.13502,-0.31256 0.10176,-0.67234 -0.08829,-0.95485c-0.19005,-0.2825 -0.51076,-0.44891 -0.85116,-0.44164zM19.23438,10.13281c-0.33487,0.00334 -0.64585,0.17406 -0.82842,0.4548c-0.18258,0.28074 -0.21253,0.63423 -0.07978,0.94168l0.38281,0.92383c0.13706,0.33013 0.43986,0.56204 0.7943,0.60836c0.35444,0.04631 0.70666,-0.10001 0.92395,-0.38384c0.21729,-0.28383 0.26662,-0.66203 0.12942,-0.9921l-0.38477,-0.92383c-0.153,-0.38283 -0.52524,-0.63254 -0.9375,-0.62891zM14.37305,13.39258c-0.40745,0.00008 -0.77411,0.24733 -0.92691,0.62504c-0.1528,0.37771 -0.06119,0.81035 0.23159,1.09371l0.70899,0.70508c0.25118,0.26087 0.62377,0.36558 0.97407,0.27374c0.3503,-0.09184 0.62359,-0.36588 0.71446,-0.71644c0.09088,-0.35056 -0.01486,-0.72285 -0.27643,-0.97331l-0.70898,-0.70508c-0.18827,-0.19353 -0.4468,-0.30272 -0.7168,-0.30273zM37.7207,13.74023c2.65527,2.99846 4.2793,6.93218 4.2793,11.25977c0,9.40069 -7.59931,17 -17,17c-4.32759,0 -8.2613,-1.62403 -11.25977,-4.2793l14.77344,-8.86328c0.14111,-0.08457 0.25918,-0.20264 0.34375,-0.34375zM34.08594,15.91406l-6.81445,11.35742l-11.35742,6.81445l6.81445,-11.35742zM38.81641,18.21484c-0.12384,0.00484 -0.2457,0.03266 -0.35937,0.08203l-0.92383,0.38477c-0.32981,0.13774 -0.56105,0.441 -0.6066,0.7955c-0.04555,0.3545 0.10153,0.70637 0.38581,0.92301c0.28428,0.21664 0.66255,0.26513 0.99227,0.12719l0.92187,-0.38477c0.45162,-0.18094 0.70751,-0.66063 0.60626,-1.13649c-0.10125,-0.47587 -0.53026,-0.80983 -1.01642,-0.79124zM11.13477,18.25586c-0.48147,-0.00393 -0.8974,0.33577 -0.98971,0.80833c-0.09231,0.47256 0.1652,0.94381 0.61276,1.12136l0.92383,0.38281c0.3312,0.14271 0.71359,0.09606 1.00076,-0.12211c0.28717,-0.21817 0.43464,-0.57404 0.38594,-0.93138c-0.04869,-0.35734 -0.28601,-0.66079 -0.62108,-0.79416l-0.92383,-0.38281c-0.12277,-0.05306 -0.25493,-0.08095 -0.38867,-0.08203zM25,23c-1.10457,0 -2,0.89543 -2,2c0,1.10457 0.89543,2 2,2c1.10457,0 2,-0.89543 2,-2c0,-1.10457 -0.89543,-2 -2,-2zM10,24c-0.36064,-0.0051 -0.69608,0.18438 -0.87789,0.49587c-0.18181,0.3115 -0.18181,0.69676 0,1.00825c0.18181,0.3115 0.51725,0.50097 0.87789,0.49587h1c0.36064,0.0051 0.69608,-0.18438 0.87789,-0.49587c0.18181,-0.3115 0.18181,-0.69676 0,-1.00825c-0.18181,-0.3115 -0.51725,-0.50097 -0.87789,-0.49587zM39,24c-0.36064,-0.0051 -0.69608,0.18438 -0.87789,0.49587c-0.18181,0.3115 -0.18181,0.69676 0,1.00825c0.18181,0.3115 0.51725,0.50097 0.87789,0.49587h1c0.36064,0.0051 0.69608,-0.18438 0.87789,-0.49587c0.18181,-0.3115 0.18181,-0.69676 0,-1.00825c-0.18181,-0.3115 -0.51725,-0.50097 -0.87789,-0.49587zM37.92969,29.34961c-0.48147,-0.00393 -0.8974,0.33577 -0.98971,0.80833c-0.09231,0.47256 0.1652,0.94381 0.61276,1.12136l0.92383,0.38281c0.3312,0.14271 0.71358,0.09605 1.00075,-0.12212c0.28717,-0.21817 0.43463,-0.57404 0.38594,-0.93138c-0.04869,-0.35734 -0.286,-0.66078 -0.62106,-0.79416l-0.92383,-0.38281c-0.12277,-0.05306 -0.25493,-0.08095 -0.38867,-0.08203zM12.05469,29.39063c-0.12384,0.00484 -0.2457,0.03266 -0.35938,0.08203l-0.92187,0.38477c-0.33775,0.13203 -0.57756,0.43654 -0.62675,0.79583c-0.04918,0.35929 0.09998,0.71704 0.38982,0.93498c0.28984,0.21794 0.67495,0.2619 1.00645,0.11489l0.92383,-0.38477c0.45208,-0.181 0.70808,-0.66132 0.60627,-1.13753c-0.1018,-0.47621 -0.53181,-0.80987 -1.01838,-0.79021zM34.89648,33.88086c-0.40744,0.00008 -0.77411,0.24733 -0.92691,0.62504c-0.1528,0.37771 -0.06119,0.81035 0.23159,1.09371l0.70898,0.70508c0.25118,0.26086 0.62376,0.36555 0.97406,0.27371c0.35029,-0.09185 0.62357,-0.36588 0.71445,-0.71643c0.09088,-0.35055 -0.01485,-0.72283 -0.2764,-0.9733l-0.70898,-0.70508c-0.18827,-0.19353 -0.4468,-0.30272 -0.7168,-0.30273zM30.35352,36.91602c-0.33575,0.00241 -0.64788,0.17313 -0.83103,0.45454c-0.18315,0.2814 -0.21287,0.63593 -0.07913,0.9439l0.38477,0.92383c0.12841,0.34246 0.43352,0.58751 0.79561,0.63901c0.3621,0.0515 0.72343,-0.09877 0.94222,-0.39185c0.2188,-0.29308 0.26016,-0.68222 0.10787,-1.01474l-0.38281,-0.92383c-0.15238,-0.3836 -0.52476,-0.63418 -0.9375,-0.63086zM19.625,36.92188c-0.40084,0.00903 -0.75754,0.25657 -0.90625,0.62891l-0.38281,0.92383c-0.14271,0.3312 -0.09606,0.71359 0.12211,1.00076c0.21817,0.28717 0.57404,0.43464 0.93138,0.38594c0.35734,-0.04869 0.66079,-0.28601 0.79416,-0.62108l0.38281,-0.92383c0.1343,-0.31268 0.10038,-0.6722 -0.09002,-0.95425c-0.1904,-0.28205 -0.51117,-0.44793 -0.85138,-0.44028zM24.98438,37.98633c-0.55152,0.00862 -0.99193,0.46214 -0.98437,1.01367v1c-0.0051,0.36064 0.18438,0.69608 0.49587,0.87789c0.3115,0.18181 0.69676,0.18181 1.00825,0c0.3115,-0.18181 0.50097,-0.51725 0.49587,-0.87789v-1c0.0037,-0.2703 -0.10218,-0.53059 -0.29351,-0.72155c-0.19133,-0.19097 -0.45182,-0.29634 -0.72212,-0.29212z"></path></g></g></svg>