<?xml version="1.0" encoding="utf-8"?>
<svg fill="#fff" width="800px" height="800px" viewBox="-8 0 32 32" version="1.1" xmlns="http://www.w3.org/2000/svg">
<title>map-marker</title>
<path d="M8.16 26.96c-0.88 0-1.64-0.4-2.040-1.080l-5.040-9c-0.68-1.16-1.080-2.52-1.080-3.92 0-4.36 3.68-7.92 8.16-7.92 4.52 0 8.16 3.56 8.16 7.92 0 1.4-0.4 2.76-1.12 3.96l-4.96 8.92c-0.44 0.72-1.2 1.12-2.080 1.12zM8.16 6.72c-3.56 0-6.48 2.8-6.48 6.24 0 1.080 0.28 2.16 0.88 3.12l5.040 8.96c0.080 0.16 0.32 0.24 0.6 0.24s0.52-0.12 0.6-0.28l5-8.92c0.56-0.96 0.88-2.040 0.88-3.12-0.040-3.44-2.92-6.24-6.52-6.24zM8.16 16.16c-1.64 0-2.96-1.36-2.96-2.96 0-1.64 1.32-2.96 2.96-2.96s2.96 1.32 2.96 2.96c0 1.6-1.32 2.96-2.96 2.96zM8.16 11.92c-0.72 0-1.28 0.56-1.28 1.28s0.56 1.28 1.28 1.28 1.28-0.56 1.28-1.28-0.56-1.28-1.28-1.28z"></path>
</svg>